<svg width="36" height="36" viewBox="0 0 36 36" xmlns="http://www.w3.org/2000/svg"><title>achievement</title><g stroke="#0093E6" stroke-width="2" stroke-linejoin="round" fill="none" fill-rule="evenodd"><path d="M17.948 5.435l1.48 2.956h2.955l-2.39 1.83.912 3.346-2.957-2.217-2.956 2.216 1.173-3.347-2.652-1.828h2.957l1.478-2.955z"/><path d="M7.832 15.783C.442 15.783 1 5.998 1 3.957h3.746m23.37 11.826c7.392 0 6.876-9.785 6.876-11.826l-3.768.01" stroke-linecap="round"/><path d="M31.304 1H4.696c0 22.815 11.774 16.34 11.774 24.39-.092 5.175-2.52 6.653-6.6 6.653V35h16.26v-2.957c-4.082 0-6.703-1.478-6.703-6.652 0-8.06 11.877-1.67 11.877-24.39z" stroke-linecap="round"/></g></svg>