<svg width="48" height="48" viewBox="0 0 48 48" xmlns="http://www.w3.org/2000/svg"><title>add_image</title><g stroke="#626A85" stroke-width="2" fill="none" fill-rule="evenodd"><path d="M33 12h15m-7.5 7.5v-15m-24.75 9c-2.125 0-3.75 1.625-3.75 3.75S13.625 21 15.75 21s3.75-1.625 3.75-3.75-1.625-3.75-3.75-3.75z"/><path d="M48 21.237v20.776c0 2.478-2 4.487-4.494 4.487H4.494C2.012 46.5 0 44.474 0 42.005V8.995C0 6.512 2.018 4.5 4.5 4.5h24.197"/><path d="M3 38.4l10.2-9.6c.6-.45 1.35-.6 1.95 0l3.45 2.85 12-11.85c.6-.6 1.5-.6 2.1 0L45 31.5" stroke-linecap="round"/></g></svg>