<svg width="32" height="32" viewBox="0 0 32 32" xmlns="http://www.w3.org/2000/svg"><title>akismet</title><path d="M0 17.296c0-.81.652-1.466 1.457-1.466s1.457.656 1.457 1.466c0 .81-.652 1.467-1.457 1.467S0 18.106 0 17.296zm19.052 10.73c1.085-.026 1.847-.104 2.285-.234.775-.234 1.162-.676 1.162-1.326 0 .026-.08-.35-.234-1.13l-1.975-5.34H10.145l-1.55 4.365c-.23.65-.347 1.237-.347 1.756 0 1.196 1.162 1.833 3.485 1.91V29H2.437v-.975c1.033-.025 1.82-.18 2.363-.467.955-.494 1.69-1.456 2.207-2.885l7.63-20.97L17.58 3l7.902 21.907c.464 1.325 1.07 2.196 1.82 2.612.516.284 1.355.453 2.517.504V29H19.05v-.975zm10.034-10.73c0-.81.652-1.466 1.457-1.466S32 16.486 32 17.296c0 .81-.652 1.467-1.457 1.467s-1.457-.657-1.457-1.467zm-9.22 1.413l-4.57-12.826h-.078l-4.61 12.824h9.258z" fill-rule="evenodd"/></svg>