<svg width="32" height="32" viewBox="0 0 32 32" xmlns="http://www.w3.org/2000/svg"><title>angellist</title><path d="M3.964 22.713c0-1.318.294-2.343.88-3.075.483-.648 1.26-1.12 2.33-1.412-.337-.836-.505-1.454-.505-1.85 0-.69.365-1.423 1.1-2.197.776-.734 1.5-1.1 2.17-1.1.357 0 .776.094 1.26.282-1.008-2.866-1.73-5.04-2.17-6.526-.505-1.694-.757-2.897-.757-3.608 0-1.005.252-1.79.755-2.354.523-.586 1.226-.88 2.107-.88 1.51 0 3.324 3.086 5.442 9.257l.534 1.538c.127-.314.253-.66.38-1.035 2.1-6.106 3.986-9.16 5.664-9.16.84 0 1.5.283 1.982.847.504.565.755 1.297.755 2.197 0 .585-.25 1.767-.753 3.545-.44 1.527-1.132 3.62-2.076 6.275 1.196.293 2.056.858 2.58 1.694.567.9.85 2.293.85 4.175 0 3.724-1.112 6.767-3.335 9.13C20.89 30.82 18.015 32 14.535 32c-1.385 0-2.717-.25-3.996-.753-1.24-.44-2.36-1.13-3.368-2.07-1.07-1.005-1.867-2.04-2.39-3.107-.546-1.13-.82-2.25-.82-3.357zm2.045-.157c0 .523.145 1.14.44 1.85.27.67.68 1.37 1.225 2.103.86 1.107 1.877 1.954 3.052 2.54 1.195.585 2.548.88 4.058.88 2.706 0 4.98-1.016 6.827-3.045 1.824-2.008 2.737-4.55 2.737-7.624 0-.962-.064-1.704-.19-2.227-.105-.46-.304-.816-.598-1.067-.566-.48-1.678-.9-3.334-1.255-1.658-.375-3.42-.564-5.287-.564-.46 0-.754.063-.88.19-.146.06-.22.27-.22.626 0 .858.483 1.464 1.447 1.82 1.048.44 2.778.66 5.19.66h.88c.337 0 .578.114.725.344.167.167.283.492.346.973-.356.354-.933.68-1.73.97-.755.273-1.31.545-1.667.817-.84.607-1.51 1.328-2.012 2.165-.483.816-.724 1.59-.724 2.322 0 .44.105.972.315 1.6.23.69.346 1.14.346 1.35v.187l-.126.47c-.922-.06-1.593-.49-2.013-1.285-.356-.67-.555-1.526-.597-2.572-.063.02-.19.03-.378.03h-.346c.02.106.032.23.032.378 0 .628-.242 1.16-.724 1.6-.482.44-1.05.66-1.7.66-.984 0-1.98-.47-2.987-1.412-1.007-.963-1.51-1.905-1.51-2.825 0-.167.03-.335.094-.502.023-.146.19-.376.505-.69.525.65.88 1.1 1.07 1.35.88 1.234 1.678 1.85 2.39 1.85.19 0 .368-.062.536-.187.126-.126.19-.23.19-.314 0-.167-.126-.47-.378-.91-.167-.314-.555-.868-1.163-1.663-.588-.753-1.06-1.276-1.417-1.57-.313-.29-.544-.438-.69-.438-.4 0-.787.23-1.165.69-.377.46-.566 1.035-.566 1.725zm2.83-5.993c0 .272.167.743.502 1.412.294.565.766 1.276 1.416 2.134.65.834 1.237 1.483 1.76 1.943.504.418.882.628 1.133.628.148 0 .295-.073.44-.22.15-.166.22-.334.22-.5 0-.25-.187-.86-.564-1.82-.44-1.068-.923-2.03-1.447-2.887-.46-.733-.87-1.245-1.227-1.538-.336-.314-.66-.47-.975-.47-.232 0-.494.156-.788.47-.315.314-.472.596-.472.847zM10.255 3.01c0 .71.252 1.83.755 3.356.463 1.485 1.155 3.473 2.078 5.962.21-.126.504-.19.88-.19.022 0 .09.007.206.017.115.01.225.016.33.016.084 0 .356.023.818.065l-2.17-6.276c-.587-1.674-1.05-2.76-1.384-3.264-.273-.44-.545-.658-.818-.658-.19 0-.346.083-.472.25-.147.19-.22.43-.22.722zm5.222 16c.19.482.388 1.005.598 1.57.42-.482.84-.88 1.258-1.193-.105-.02-.262-.047-.472-.078-.21-.034-.367-.06-.472-.08-.42-.084-.723-.158-.912-.22zm3.303-6.4l2.11.377c.944-2.594 1.668-4.675 2.17-6.244.525-1.694.787-2.698.787-3.012 0-.333-.073-.594-.22-.783-.084-.146-.24-.22-.472-.22-.293 0-.618.283-.975.848-.4.607-.85 1.663-1.354 3.17L18.78 12.61z" fill-rule="evenodd"/></svg>