<svg width="36" height="36" viewBox="0 0 36 36" xmlns="http://www.w3.org/2000/svg"><title>app</title><g stroke="#0093E6" stroke-width="2" stroke-linecap="round" stroke-linejoin="round" fill="none" fill-rule="evenodd"><path d="M35 32.043C35 33.67 33.67 35 32.043 35H3.957C2.33 35 1 33.67 1 32.043V3.957C1 2.33 2.33 1 3.957 1h28.086C33.67 1 35 2.33 35 3.957v28.086z"/><path d="M1 14.305h5.913L9.87 9.87l2.956 4.434 2.957-6.653 4.434 14.046 3.696-17.738 2.957 10.348H35M6.913 30.566v1.477m8.87-1.478v1.478m8.87-1.478v1.478M11.347 27.61v4.433m8.87-4.433v4.433m8.87-4.433v4.433"/></g></svg>