<svg width="48" height="48" viewBox="0 0 48 48" xmlns="http://www.w3.org/2000/svg"><title>blockquote</title><path d="M15.553 37.167c-2.75 0-5.028-.968-6.838-2.904C6.905 32.327 6 29.973 6 27.197 6 20.744 10.693 14.68 20.078 9l2.816 2.71c-2.95 1.742-5.095 3.42-6.436 5.033-1.34 1.614-2.01 3.453-2.01 5.518 0 1.743.703 3.227 2.11 4.453 1.408 1.226 2.816 2.13 4.224 2.71 1.408.58 2.112.904 2.112.968 0 1.68-.704 3.228-2.112 4.647-1.408 1.42-3.15 2.13-5.23 2.13zm19.207 0c-2.75 0-5.028-.968-6.838-2.904-1.81-1.936-2.715-4.29-2.715-7.066 0-6.517 4.66-12.583 13.977-18.197L42 11.71c-2.95 1.807-5.078 3.517-6.385 5.13-1.308 1.613-1.96 3.485-1.96 5.614 0 1.742.686 3.227 2.06 4.453 1.374 1.226 2.765 2.13 4.173 2.71 1.408.58 2.112.903 2.112.968.134 1.613-.486 3.113-1.86 4.5-1.375 1.388-3.168 2.082-5.38 2.082z" fill="#505977" opacity=".9" fill-rule="evenodd"/></svg>