<svg width="48" height="48" viewBox="0 0 48 48" xmlns="http://www.w3.org/2000/svg"><title>bold</title><path d="M23.334 42.75H6.954l.267-2.448 2.266-.258c1.42-.258 2.13-.687 2.13-1.29V8.86c0-.687-.843-1.117-2.53-1.288H7.22l-.265-2.32h17.31c10.388 0 15.582 2.792 15.582 8.376 0 2.492-1 4.532-2.996 6.12-1.996 1.59-4.504 2.643-7.522 3.16v.256c7.812.945 11.718 4.167 11.718 9.665 0 6.614-5.903 9.922-17.71 9.922zm-.932-34.794h-2.797v14.69h3.463c2.397 0 4.283-.686 5.66-2.06 1.376-1.376 2.064-3.094 2.064-5.156 0-2.32-.71-4.145-2.13-5.476-1.422-1.332-3.508-1.998-6.26-1.998zm-.533 17.01h-2.266v15.078l3.463.515h.666c2.397 0 4.394-.668 5.992-2 1.598-1.33 2.397-3.156 2.397-5.476 0-2.75-.932-4.79-2.796-6.12-1.865-1.333-4.35-2-7.458-2z" fill="#505977" opacity=".9" fill-rule="evenodd"/></svg>