<svg width="48" height="48" viewBox="0 0 48 48" xmlns="http://www.w3.org/2000/svg"><title>checkin</title><g fill="#231F1F" fill-rule="evenodd"><path d="M24 0C15.178 0 8 7.178 8 16c0 8.49 14.546 30.613 15.166 31.55.185.28.498.45.834.45.336 0 .65-.17.834-.45C25.454 46.614 40 24.49 40 16c0-8.822-7.178-16-16-16zm0 45.158C20.867 40.264 10 22.79 10 16c0-7.72 6.28-14 14-14s14 6.28 14 14c0 6.79-10.867 24.264-14 29.158z"/><path d="M24 9c-3.86 0-7 3.14-7 7s3.14 7 7 7 7-3.14 7-7-3.14-7-7-7zm0 12c-2.757 0-5-2.243-5-5s2.243-5 5-5 5 2.243 5 5-2.243 5-5 5z"/></g></svg>