<svg width="48" height="48" viewBox="0 0 48 48" xmlns="http://www.w3.org/2000/svg"><title>city</title><g fill="#231F1F" fill-rule="evenodd"><path d="M46 46h-1V27c0-.553-.447-1-1-1h-5v-1c0-.553-.447-1-1-1-.553 0-1 .447-1 1v1h-1c-.553 0-1 .447-1 1v19h-2V9c0-.553-.447-1-1-1h-5V5c0-.553-.447-1-1-1h-1V1c0-.553-.447-1-1-1-.553 0-1 .447-1 1v3h-3c-.553 0-1 .447-1 1v3h-5c-.553 0-1 .447-1 1v37h-2V27c0-.553-.447-1-1-1H9v-1c0-.553-.447-1-1-1-.553 0-1 .447-1 1v1H2c-.553 0-1 .447-1 1v19H0c-.553 0-1 .447-1 1 0 .553.447 1 1 1h46c.553 0 1-.447 1-1 0-.553-.447-1-1-1zM21 6h4v2h-4V6zM3 28h6v18H3V28zm12-18h16v36H15V10zm22 18h6v18h-6V28z"/><path d="M28 14H18c-.553 0-1 .447-1 1 0 .553.447 1 1 1h10c.553 0 1-.447 1-1 0-.553-.447-1-1-1m0 6H18c-.553 0-1 .447-1 1 0 .553.447 1 1 1h10c.553 0 1-.447 1-1 0-.553-.447-1-1-1m0 6H18c-.553 0-1 .447-1 1 0 .553.447 1 1 1h10c.553 0 1-.447 1-1 0-.553-.447-1-1-1m0 6H18c-.553 0-1 .447-1 1 0 .553.447 1 1 1h10c.553 0 1-.447 1-1 0-.553-.447-1-1-1m0 6H18c-.553 0-1 .447-1 1 0 .553.447 1 1 1h10c.553 0 1-.447 1-1 0-.553-.447-1-1-1"/></g></svg>