<svg width="36" height="36" viewBox="0 0 36 36" xmlns="http://www.w3.org/2000/svg"><title>cog</title><g stroke="#0093E6" stroke-width="2" stroke-linecap="round" stroke-linejoin="round" fill="none" fill-rule="evenodd"><path d="M30.2 20.217H35v-4.434h-4.8c-.31-1.282-.815-3.224-1.483-4.32L32.11 8.07l-4.18-4.18-3.395 3.393C23.44 6.613 21.5 6.11 20.217 5.8V1h-4.435v4.8c-1.28.31-3.223.814-4.318 1.483L8.07 3.89 3.888 8.07l3.394 3.395C6.614 12.56 6.11 14.5 5.798 15.783H1v4.434h4.798c.31 1.282.816 3.224 1.484 4.318L3.887 27.93l4.183 4.18 3.393-3.394c1.096.67 3.038 1.175 4.32 1.486V35h4.434v-4.798c1.283-.31 3.224-.816 4.318-1.485l3.396 3.394 4.18-4.18-3.393-3.395c.668-1.094 1.174-3.036 1.484-4.318z"/><path d="M24.652 18c0 3.674-2.978 6.652-6.652 6.652S11.348 21.674 11.348 18s2.978-6.652 6.652-6.652 6.652 2.978 6.652 6.652z"/></g></svg>