<svg width="36" height="36" viewBox="0 0 36 36" xmlns="http://www.w3.org/2000/svg"><title>component</title><path d="M18 20L1 12.61v11.825l17 7.39V20zm17-7.39L18 20v11.826l17-7.39V12.608zm-12.565.738c0 1.225-1.986 2.217-4.435 2.217-2.45 0-4.435-.992-4.435-2.217 0-1.224 1.986-2.218 4.435-2.218 2.45 0 4.435.994 4.435 2.218zm0-8.13c0 1.224-1.986 2.217-4.435 2.217-2.45 0-4.435-.993-4.435-2.218C13.565 3.993 15.55 3 18 3c2.45 0 4.435.993 4.435 2.217zM32.783 9.65c0 1.225-1.986 2.218-4.435 2.218-2.45 0-4.435-.993-4.435-2.218 0-1.224 1.986-2.217 4.435-2.217 2.45 0 4.435.993 4.435 2.217zm-19.957 0c0 1.225-1.986 2.218-4.435 2.218-2.446 0-4.432-.993-4.432-2.218 0-1.224 1.986-2.217 4.434-2.217 2.45 0 4.436.993 4.436 2.217zm-8.02 1.302L1 12.608m13.655-5.935L11.47 8.057m13.47.177l-3.6-1.564M35 12.61l-3.4-1.48" stroke="#0093E6" stroke-width="2" stroke-linecap="round" stroke-linejoin="round" fill="none" fill-rule="evenodd"/></svg>