<svg width="36" height="36" viewBox="0 0 36 36" xmlns="http://www.w3.org/2000/svg"><title>dashboard</title><g stroke="#0093E6" stroke-width="2" stroke-linecap="round" stroke-linejoin="round" fill="none" fill-rule="evenodd"><path d="M35.083 18c0 9.388-7.612 17-17 17-9.39 0-17-7.612-17-17s7.61-17 17-17c9.388 0 17 7.612 17 17z"/><path d="M20.3 18c0 1.224-.993 2.217-2.217 2.217-1.225 0-2.217-.993-2.217-2.217 0-1.224.992-2.217 2.217-2.217 1.224 0 2.217.993 2.217 2.217zm-.65-1.568l7.317-7.316M3.957 18h2.956m-1.806 5.374l2.733-1.13m23.216 1.13l-2.73-1.13m3.8-5.24L29.17 17m1.887-4.373l-2.73 1.13m-4.87-8.73l-1.13 2.73M18 4.23v2.957m-5.29-2.16l1.13 2.73m-5.686.313l2.09 2.09M5.11 12.625l2.73 1.132"/></g></svg>