<svg width="36" height="36" viewBox="0 0 36 36" xmlns="http://www.w3.org/2000/svg"><title>desktop</title><g stroke="#0093E6" stroke-width="2" fill="none" fill-rule="evenodd"><path d="M35 25.76c0 1.297-.993 2.35-2.217 2.35H3.217C1.993 28.11 1 27.056 1 25.76V3.848C1 2.55 1.993 1.5 3.217 1.5h29.566C34.007 1.5 35 2.55 35 3.848V25.76zM4.994 34.065h27.013" stroke-linecap="round" stroke-linejoin="round"/><path d="M18.74 28.493v5.015" stroke-linejoin="round"/><path d="M19.478 25.24c0 .407-.33.738-.74.738-.408 0-.738-.33-.738-.74 0-.408.33-.738.74-.738.407 0 .738.33.738.74zM2 22.196h32"/></g></svg>