<svg width="48" height="48" viewBox="0 0 48 48" xmlns="http://www.w3.org/2000/svg"><title>earth</title><path d="M41.827 7.95c-.01-.012-.023-.024-.034-.038-2.89-3.193-6.627-5.605-10.85-6.885-.013-.002-.023-.006-.034-.01C28.72.36 26.4 0 24 0 10.767 0 0 10.767 0 24s10.767 24 24 24 24-10.767 24-24c0-6.165-2.338-11.793-6.173-16.05zm-1.924.872c-.325 1.256-1.41 4.602-4.05 6.12-3.543-.69-6.95 1.245-7.686 2.143-.474.577-.31 1.092-.22 1.286.157.33.454.547.822.61.334.396.912 1.878 1.26 3.264.043.175.134.336.262.464.97.97 2.354.8 3.258.532.13 1.07-1.39 2.764-2.882 4.316C29.558 28.71 29 29.29 29 30c0 .83.608 1.358 1.053 1.745.118.104.3.263.393.37-.03.042-.076.1-.153.178-1.297 1.296-2.6 1.756-2.61 1.758-.408.14-.683.52-.683.95 0 2.617-1.634 3.96-4.857 4-.675-.5-2.102-3.264-2.143-4 0-.263.2-.664.395-1.052.284-.568.605-1.21.605-1.947 0-1.122-1.242-2.606-2.01-3.416-.063-1.235-.417-2.142-1.075-2.764-1.128-1.067-2.814-.97-4.443-.877-.48.028-.977.057-1.472.057-1.96 0-2-2.88-2-3 0-.062.048-6.19 4.196-7.02 2.82-.564 3.703-.064 3.81.124.023.227.124.44.287.603 1.788 1.788 4.5 1.157 6.678.65.793-.183 1.54-.357 2.03-.357.5 0 .92-.366.99-.858.38-2.655.56-6.015-.743-6.954-.483-.348-1.1-.378-1.693-.083-.723.362-1.398.424-1.852.172-.503-.28-.66-.9-.704-1.37-.12-1.286 3.897-3.042 7.675-3.87 3.555 1.133 6.715 3.15 9.233 5.785zM24 46C11.87 46 2 36.13 2 24S11.87 2 24 2c.853 0 1.693.054 2.52.148-2.736.986-5.734 2.604-5.516 4.945.125 1.343.738 2.384 1.725 2.932.952.53 2.167.535 3.394.018.175.712.17 2.344-.017 4.035-.498.077-1.035.202-1.59.33-1.677.39-3.564.828-4.617.052-.11-.32-.33-.67-.69-.968-1.026-.84-2.792-.996-5.406-.472C8.066 14.167 8 21.68 8 22c0 1.73.836 5 4 5 .534 0 1.068-.03 1.586-.06 1.258-.072 2.454-.14 2.955.333.307.288.46.87.46 1.727 0 .265.106.52.294.707.848.85 1.662 1.95 1.707 2.293 0 .264-.2.665-.394 1.053C18.32 33.62 18 34.263 18 35c0 1.016 2.05 6 4 6 4.18 0 6.687-1.932 6.973-5.33.65-.316 1.697-.926 2.734-1.963.53-.53.79-1.092.772-1.665-.033-.864-.66-1.41-1.116-1.806-.074-.064-.168-.146-.247-.22.236-.288.66-.73.99-1.074 1.88-1.954 5.025-5.223 2.6-7.65-.307-.304-.77-.378-1.155-.187-.42.21-1.25.44-1.676.29-.492-1.856-1.006-2.928-1.467-3.548 1.094-.624 3.234-1.406 5.347-.876.23.058.475.03.69-.074 2.846-1.424 4.304-4.334 4.993-6.282C44.298 14.324 46 18.966 46 24c0 12.13-9.87 22-22 22z" fill="#231F1F" fill-rule="evenodd"/></svg>