<svg width="36" height="36" viewBox="0 0 36 36" xmlns="http://www.w3.org/2000/svg"><title>emit</title><path d="M18 19.645v12.85M29.975 3.05c2.89 3.15 4.677 7.503 4.677 12.312 0 4.81-1.787 9.162-4.677 12.314M25.818 7.332c1.927 2.054 3.118 4.894 3.118 8.03 0 3.136-1.19 5.975-3.118 8.03M6.072 3.05c-2.89 3.15-4.677 7.502-4.677 12.31 0 4.81 1.788 9.162 4.677 12.314M10.23 7.332c-1.927 2.054-3.12 4.894-3.12 8.03 0 3.136 1.193 5.975 3.12 8.03m11.737-7.36C21.967 18.223 20.19 20 18 20c-2.19 0-3.967-1.776-3.967-3.967 0-2.19 1.776-3.966 3.967-3.966 2.19 0 3.967 1.776 3.967 3.966z" stroke="#0093E6" stroke-width="2" fill="none" fill-rule="evenodd"/></svg>