<svg width="32" height="32" viewBox="0 0 32 32" xmlns="http://www.w3.org/2000/svg"><title>foursquare</title><path d="M0 14.14c0-4.15 3.292-7.51 7.354-7.51 3.187 0 5.9 2.07 6.922 4.966l1.24-1.263 3.78 3.852 10.32-10.712L32 1l-.05 3.468-.1 6.894-.008.616-.453.407-7.366 6.62 1.63 1.662L15.514 31 6.26 21.565C2.716 21.025 0 17.905 0 14.14zm12.953 2.836c.265-.697.393-2.07.393-2.837 0-3.38-2.683-6.12-5.992-6.12-3.31 0-5.992 2.74-5.992 6.12 0 3.377 2.683 6.116 5.992 6.116.478 0 1.966-.21 2.42-.322l5.27 6.126L30.49 11.34l.098-6.058-15.285 14.195-2.35-2.5z" fill-rule="evenodd"/></svg>