<svg width="36" height="36" viewBox="0 0 36 36" xmlns="http://www.w3.org/2000/svg"><title>ghost</title><g stroke="#0093E6" stroke-width="2" stroke-linecap="round" stroke-linejoin="round" fill="none" fill-rule="evenodd"><path d="M30.083 13.542C30.083 6.615 24.468 1 17.543 1 10.613 1 5 6.615 5 13.542v19.92c0 .81.664 1.474 1.475 1.474h.738c.812 0 1.476-.664 1.476-1.475 0-.81.662-1.474 1.473-1.474.812 0 1.476.664 1.476 1.476 0 .812.663 1.476 1.474 1.476h1.476c.812 0 1.476-.664 1.476-1.475 0-.81.664-1.475 1.476-1.475.81 0 1.475.664 1.475 1.476 0 .812.664 1.476 1.476 1.476h1.475c.812 0 1.476-.664 1.476-1.475 0-.81.664-1.475 1.475-1.475.81 0 1.474.664 1.474 1.476 0 .812.664 1.476 1.475 1.476h.737c.81 0 1.475-.664 1.475-1.475V13.543z"/><path d="M24.18 17.968c0 1.217-.995 2.213-2.212 2.213s-2.213-.994-2.213-2.21v-4.427c0-1.218.996-2.214 2.213-2.214s2.213.995 2.213 2.213v4.426z"/><path d="M21.23 16.493c0 .408-.33.737-.737.737-.408 0-.738-.33-.738-.737 0-.408.33-.738.738-.738s.737.33.737.738zm-5.902 1.475c0 1.217-.996 2.213-2.213 2.213s-2.213-.994-2.213-2.21v-4.427c0-1.218.996-2.214 2.213-2.214s2.213.995 2.213 2.213v4.426z"/><path d="M12.377 16.493c0 .408-.33.737-.737.737-.408 0-.738-.33-.738-.737 0-.408.33-.738.738-.738s.737.33.737.738z"/></g></svg>