<svg width="32" height="32" viewBox="0 0 32 32" xmlns="http://www.w3.org/2000/svg"><title>github</title><path d="M0 16.422c0-2.803.867-5.208 2.6-7.215-.1-.258-.19-.566-.267-.925-.078-.358-.15-.852-.216-1.48-.067-.627-.04-1.356.083-2.186.122-.83.344-1.676.667-2.54.055-.022.14-.04.258-.058.117-.017.38-.003.792.042.41.045.858.146 1.34.303.485.157 1.13.448 1.935.874.805.426 1.652.97 2.54 1.63C11.257 4.41 13.345 4.18 16 4.18c2.656 0 4.74.23 6.25.688.89-.66 1.733-1.208 2.533-1.64.8-.43 1.453-.72 1.96-.865.504-.146.946-.247 1.324-.303.377-.056.65-.067.816-.034l.25.05c.322.864.542 1.71.66 2.54.115.83.14 1.56.073 2.195-.066.635-.136 1.126-.208 1.473-.072.348-.158.656-.258.925 1.733 2.018 2.6 4.423 2.6 7.215 0 1.558-.136 2.97-.408 4.237-.273 1.266-.65 2.365-1.134 3.296-.483.93-1.097 1.746-1.84 2.446-.746.7-1.554 1.278-2.426 1.733-.873.454-1.867.82-2.984 1.1-1.116.28-2.255.478-3.416.59-1.162.112-2.437.168-3.825.168-1.39 0-2.662-.056-3.817-.168-1.156-.112-2.292-.31-3.408-.59-1.117-.28-2.11-.646-2.975-1.1-.867-.455-1.67-1.032-2.41-1.733-.738-.7-1.35-1.516-1.832-2.446-.483-.93-.858-2.03-1.125-3.297-.267-1.27-.4-2.68-.4-4.24zm4.267 4.237c0 .95.11 1.8.333 2.546.222.746.503 1.37.842 1.875.34.506.814.93 1.425 1.28.61.347 1.202.616 1.775.806.572.19 1.31.34 2.216.446.906.107 1.714.17 2.425.193.712.023 1.612.034 2.7.034 1.09 0 1.992-.01 2.71-.035.715-.022 1.526-.087 2.432-.193.906-.106 1.645-.255 2.217-.446.572-.19 1.164-.46 1.775-.807.61-.348 1.086-.774 1.425-1.28.34-.503.62-1.13.84-1.874.224-.745.335-1.595.335-2.548 0-1.626-.667-3.1-2-4.424-.4-.403-.867-.71-1.4-.916-.534-.207-1.136-.325-1.81-.353-.67-.028-1.312-.023-1.924.017-.61.04-1.366.092-2.266.16-.9.067-1.678.1-2.334.1-.655 0-1.433-.033-2.333-.1-.9-.068-1.656-.12-2.267-.16-.61-.04-1.252-.045-1.925-.017-.672.028-1.272.146-1.8.353-.527.207-.99.513-1.39.916-1.335 1.323-2 2.798-2 4.423zm4.25-.388c0-.752.155-1.388.466-1.91.31-.52.69-.78 1.134-.78.444 0 .822.26 1.133.78.31.522.467 1.158.467 1.91 0 .74-.156 1.373-.467 1.9-.31.527-.69.79-1.133.79-.445 0-.823-.263-1.134-.79-.31-.527-.466-1.16-.466-1.9zm5.35 4.76c-.023-.09-.017-.178.016-.262.034-.083.09-.136.167-.16.19-.077.31-.01.367.203.122.38.328.69.616.925.29.235.606.353.95.353.345 0 .662-.116.95-.35.29-.236.495-.545.617-.926.056-.213.178-.28.367-.202.077.024.133.077.166.16.034.085.04.172.017.262-.155.515-.428.933-.817 1.253-.388.32-.822.48-1.3.48-.477 0-.91-.16-1.3-.48-.39-.32-.66-.738-.816-1.253zm1.033-2.036c0-.146.106-.272.317-.38.21-.105.46-.158.75-.158s.54.052.75.158c.21.107.316.233.316.38 0 .145-.105.27-.316.377-.21.107-.46.16-.75.16s-.54-.053-.75-.16c-.21-.106-.317-.232-.317-.378zm5.317-2.724c0-.752.155-1.388.466-1.91.312-.52.69-.78 1.134-.78.444 0 .822.26 1.133.78.31.522.467 1.158.467 1.91 0 .74-.156 1.373-.467 1.9-.31.527-.69.79-1.133.79-.445 0-.822-.263-1.134-.79-.31-.527-.466-1.16-.466-1.9z" fill-rule="evenodd"/></svg>