<svg width="32" height="32" viewBox="0 0 32 32" xmlns="http://www.w3.org/2000/svg"><title>google_plus</title><path d="M8.795 25.255c-.255-.032-.62-.048-1.096-.048-1.843 0-3.51.254-5.004.763-1.134.395-2.033.91-2.696 1.54v2.813C0 31.245.755 32 1.677 32h12.29c.013-.15.02-.3.02-.456 0-1.144-.412-2.176-1.238-3.097-.636-.7-1.954-1.763-3.955-3.192zm-1.858-7.718c1.27 0 2.35-.445 3.24-1.335.793-.793 1.19-1.953 1.19-3.477 0-2.002-.508-3.89-1.524-5.67-1.175-2.064-2.668-2.963-4.48-2.963-1.65 0-2.874.565-3.667 1.962C1.22 6.85.98 7.85.98 9.056c0 1.938.478 3.748 1.43 5.43 1.144 2.034 2.652 3.05 4.527 3.05zM30.323 0H1.677C.755 0 0 .755 0 1.677V4.87c2.037-1.656 4.826-2.484 8.366-2.484h9.815l-3.05 1.802H12.18c2.254 1.876 3.382 3.89 3.382 6.306 0 1.56-.413 2.927-1.24 4.103-.54.764-1.46 1.655-2.762 2.672-.89.89-1.334 1.67-1.334 2.337 0 .732.413 1.416 1.24 2.052l1.714 1.334c1.334 1.018 2.27 1.924 2.81 2.72.795 1.144 1.192 2.464 1.192 3.96 0 .814-.12 1.59-.364 2.326h13.507c.922 0 1.677-.755 1.677-1.678V1.677C32 .755 31.245 0 30.323 0zM28.82 9.7h-4.032v3.61h-1.775V9.7h-3.83V7.85h3.83V4.222h1.775V7.85h4.03V9.7zM5.745 20.693c0-.468.158-1.075.476-1.823H4.697c-1.83 0-3.396-.447-4.697-1.342v7.647c1.844-.663 4.236-1.097 7.175-1.302-.953-1.215-1.43-2.275-1.43-3.18z" fill="#EB2F12" fill-rule="evenodd"/></svg>