<svg width="32" height="32" viewBox="0 0 32 32" xmlns="http://www.w3.org/2000/svg"><title>google_analytics</title><g fill="#EB2F12" fill-rule="evenodd"><path d="M23.268 22.42c-.002-.08-.006-.123-.006-.123-.024-.416-.092-.823-.206-1.2-.15-.497-.38-.936-.648-1.322l-.12-.16s-.003-.007-.01-.014c-.096-.125-.198-.246-.307-.357-.152-.164-.313-.318-.477-.464-.287-.256-.58-.49-.876-.713l-.014-.01c-1.308-1.07-1.977-1.092-1.977-2.277 0-.48.43-1.24 1.598-2.138 1.168-.9 2.068-2.057 2.066-3.48-.002-1.406-.545-2.524-.545-2.524-.305-.72-.78-1.342-1.373-1.842 0 0-.08-.232.05-.392s1.04-1.408 1.04-1.408.16-.23.1-.35c-.06-.12-.81-.728-.81-.728s-.16-.05-.34.09c-.18.14-2.077 1.3-2.536 1.344-.46.044-1.597.07-1.597.07-.578.013-1.167.095-1.756.258-3.303.916-5.337 3.984-4.542 6.852.682 2.46 3.224 3.975 6.018 3.778-.15.242-.3.623-.3 1.178 0 .966.765 1.867.974 2.096-.044-.002-.088-.004-.136-.004-.524 0-1.827.015-2.973.196l-.027.005c-.433.055-.842.15-1.24.283-.42.143-.83.32-1.244.52-.21.096-.41.215-.62.334-.206.12-.41.258-.608.413-.2.154-.393.327-.572.523-.09.098-.176.202-.26.31-.082.11-.16.224-.232.344-.185.308-.326.654-.416 1.015-.142.506-.28 1.243-.167 1.964.2 1.278 1.082 2.173 2.07 2.87.366.277.766.483 1.166.646.423.177.705.238.705.238v-.003c.31.085.617.146.923.188 0 0 3.69.64 6.59-.833.525-.267.973-.557 1.358-.86.13-.095.255-.193.377-.3.653-.586 1.213-1.29 1.602-2.158.045-.108.09-.23.13-.34.02-.08.04-.144.054-.21.016-.067.028-.135.04-.203.048-.27.077-.55.078-.824 0-.092-.002-.184-.005-.275zM12.694 10.925c-.786-2.422.04-4.86 1.843-5.446 1.804-.587 3.903.902 4.69 3.324.786 2.422-.04 4.86-1.843 5.446-1.804.586-3.904-.903-4.69-3.325zm-.87 14.636c-.205-.21-.366-.443-.5-.684-.13-.243-.22-.503-.29-.776-.016-.07-.03-.14-.042-.208l-.014-.1-.01-.072-.002-.017c0 .006.003.02 0 .008v-.03c-.01-.13-.018-.256-.013-.38.003-.25.037-.492.096-.757.014-.066.034-.132.056-.2.02-.067.043-.136.07-.205.056-.138.123-.278.202-.416.157-.278.365-.55.617-.79.253-.235.543-.445.856-.61.31-.166.64-.306.967-.392.182-.047.368-.09.555-.13.188-.04.377-.07.567-.103.38-.063.762-.123 1.147-.17.326-.033.655-.07.982-.09h.68s.01.007.027.02l.023.02c.024.018.048.035.07.054.55.437 2.804 2.29 3.16 3.59.402 1.477-.907 3.554-3.364 3.92-.162.024-.323.04-.485.053-.092.006-.184.012-.272.015l-.28.01c-.376.003-.75-.007-1.116-.038-.368-.035-.73-.09-1.08-.168-.702-.16-1.36-.416-1.9-.766-.272-.173-.508-.375-.713-.585z"/><path d="M27.152 1.293c.944 0 1.835.37 2.51 1.045.674.675 1.045 1.566 1.045 2.51v22.304c0 .944-.37 1.835-1.046 2.51-.672.674-1.563 1.045-2.507 1.045H4.848c-.944 0-1.835-.37-2.51-1.046-.674-.672-1.045-1.563-1.045-2.507V4.848c0-.944.37-1.835 1.045-2.51.675-.674 1.566-1.045 2.51-1.045h22.304zm0-1.293H4.848C2.182 0 0 2.182 0 4.848v22.304C0 29.818 2.182 32 4.848 32h22.304C29.818 32 32 29.818 32 27.152V4.848C32 2.182 29.818 0 27.152 0z"/></g></svg>