<svg width="36" height="36" viewBox="0 0 36 36" xmlns="http://www.w3.org/2000/svg"><title>h1</title><path d="M12.985 27.993l.138-1.305 1.1-.138c.732-.09 1.098-.32 1.098-.687v-7.35H6.53v7.556c0 .32.39.48 1.168.48l1.1.137.137 1.305H0l.137-1.305 1.168-.138c.733-.138 1.1-.367 1.1-.688V9.922c0-.365-.435-.594-1.306-.685H.135L0 8h8.932l-.138 1.237-1.1.206c-.778 0-1.167.206-1.167.618v7.01h8.794V9.924c0-.32-.364-.48-1.097-.48l-1.1-.207L12.986 8h8.932l-.138 1.237-1.17.206c-.73.137-1.098.343-1.098.618v16.01c0 .32.435.527 1.305.62l1.1.136.137 1.305h-9.07v-.136zm11.955 0v-1.305l2.267-.344c.412-.137.618-.343.618-.618V14.664l-3.023-.274v-.962l6.665-1.924v14.222c0 .275.23.48.687.618l1.717.344v1.305h-8.93z" fill="#199EE9" fill-rule="evenodd"/></svg>