<svg width="36" height="36" viewBox="0 0 36 36" xmlns="http://www.w3.org/2000/svg"><title>h2</title><path d="M12.985 27.993l.138-1.305 1.1-.138c.732-.09 1.098-.32 1.098-.687v-7.35H6.53v7.556c0 .32.39.48 1.168.48l1.1.137.137 1.305H0l.137-1.305 1.168-.138c.733-.138 1.1-.367 1.1-.688V9.922c0-.365-.435-.594-1.306-.685H.135L0 8h8.932l-.138 1.237-1.1.206c-.778 0-1.167.206-1.167.618v7.01h8.794V9.924c0-.32-.41-.48-1.235-.48l-.96-.207L12.983 8h8.933l-.138 1.237-1.17.206c-.73.137-1.098.343-1.098.618v16.01c0 .32.435.527 1.305.62l1.1.136.137 1.305h-9.07v-.136zm22.054 0H24.594l-.137-1.65c.457-.503 1.144-1.2 2.06-2.094.916-.896 1.58-1.56 1.992-1.995.413-.435.882-.985 1.41-1.65.526-.663.892-1.28 1.098-1.854.206-.57.31-1.18.31-1.82 0-.87-.253-1.545-.756-2.026-.504-.48-1.146-.722-1.924-.722-1.145 0-2.428.596-3.848 1.787l-.343-.62c1.51-2.473 3.434-3.71 5.77-3.71 1.466 0 2.634.424 3.504 1.27.87.85 1.306 1.914 1.306 3.196 0 1.237-.516 2.428-1.547 3.573-1.03 1.144-2.783 2.724-5.256 4.74l-1.03.824v.137h1.717c2.245 0 3.608-.022 4.09-.067.48-.046.834-.23 1.063-.55l.62-1.1h1.098l-.755 4.33z" fill="#199EE9" fill-rule="evenodd"/></svg>