<svg width="36" height="36" viewBox="0 0 36 36" xmlns="http://www.w3.org/2000/svg"><title>h3</title><path d="M12.985 27.993l.138-1.305 1.1-.138c.732-.09 1.098-.32 1.098-.687v-7.35H6.53v7.556c0 .32.39.48 1.168.48l1.1.137.137 1.305H0l.137-1.305 1.168-.138c.733-.138 1.1-.367 1.1-.688V9.922c0-.365-.435-.594-1.306-.685H.135L0 8h8.932l-.138 1.237-1.1.206c-.778 0-1.167.206-1.167.618v7.01h8.794V9.924c0-.32-.41-.48-1.235-.48l-.96-.207L12.983 8h8.933l-.138 1.237-1.17.206c-.73.137-1.098.343-1.098.618v16.01c0 .32.435.527 1.305.62l1.1.136.137 1.305h-9.07v-.136zm15.665.618c-1.19 0-2.187-.227-2.99-.685-.8-.458-1.2-1.076-1.2-1.855 0-1.1.526-1.65 1.58-1.65.686 0 1.213.298 1.58.894.366.595.55 1.26.55 1.992h.617c.825 0 1.512-.332 2.06-.996.55-.664.826-1.5.826-2.508 0-.916-.24-1.592-.722-2.027-.48-.435-1.085-.652-1.82-.652-.594 0-1.19.16-1.785.48l-.48-.96c.183-.14.515-.368.996-.688.48-.32.814-.55.997-.687.183-.138.446-.355.79-.653.344-.298.595-.538.756-.722.16-.183.297-.423.412-.72.114-.3.172-.585.172-.86 0-1.42-.78-2.13-2.336-2.13-1.236 0-2.52.55-3.847 1.65l-.343-.825c.686-.916 1.602-1.672 2.747-2.267 1.145-.594 2.313-.892 3.504-.892 1.147 0 2.12.31 2.92.928.803.618 1.204 1.363 1.204 2.233 0 .55-.194 1.087-.584 1.613-.39.527-.734.916-1.03 1.168-.3.253-.883.63-1.753 1.135-.87.504-1.397.802-1.58.893v.138c.64-.184 1.167-.275 1.58-.275 1.053 0 1.958.31 2.713.928.756.62 1.134 1.477 1.134 2.577.092 1.42-.527 2.68-1.855 3.778-1.33 1.1-2.933 1.65-4.81 1.65z" fill="#199EE9" fill-rule="evenodd"/></svg>