<svg width="36" height="36" viewBox="0 0 36 36" xmlns="http://www.w3.org/2000/svg"><title>hull</title><g fill="none" fill-rule="evenodd"><path d="M35.973 10.373c-.023-.446-.07-.786-.1-1.017L35.823 9s-.02.123-.064.353l-.07.424c-.036.164-.073.35-.108.56-.08.417-.2.918-.35 1.472-.154.55-.358 1.154-.628 1.757-.272.603-.613 1.208-1.045 1.747-.433.543-.946 1.024-1.54 1.426-.594.406-1.26.73-1.97 1.004-.71.27-1.466.492-2.24.68-.77.204-1.56.366-2.35.555-.79.18-1.575.383-2.34.63-.765.25-1.51.55-2.197.948-.684.394-1.313.896-1.798 1.5-.49.592-.808 1.285-.99 1.906-.06.212-.102.414-.136.612-.035-.198-.077-.4-.138-.61-.182-.62-.498-1.314-.99-1.907-.483-.6-1.11-1.1-1.796-1.5-.688-.397-1.432-.697-2.197-.946-.767-.25-1.554-.45-2.34-.633-.79-.19-1.58-.353-2.353-.556-.772-.188-1.526-.41-2.237-.683-.71-.274-1.375-.6-1.967-1.002-.594-.404-1.108-.886-1.54-1.427-.432-.54-.772-1.143-1.044-1.745-.273-.603-.476-1.206-.63-1.758-.15-.554-.27-1.054-.35-1.473-.038-.21-.074-.4-.108-.562-.027-.166-.052-.307-.07-.422L.18 9s-.02.124-.052.357c-.03.232-.077.576-.1 1.018-.025.443-.044.986-.008 1.613.035.628.127 1.342.318 2.11.194.763.494 1.583.95 2.357.455.773 1.053 1.498 1.754 2.08.347.296.718.562 1.103.792.382.237.78.443 1.182.618.806.366 1.638.615 2.458.83.823.2 1.64.363 2.432.5l1.168.202c.38.07.752.142 1.12.21.724.152 1.41.318 2.023.548.615.23 1.16.515 1.603.88.905.714 1.363 1.78 1.585 2.575.055.2.102.38.136.542.04.158.07.3.087.415L18 27l.066-.35c.017-.117.047-.255.085-.416.037-.162.085-.344.14-.544.114-.397.28-.86.536-1.318.258-.453.595-.9 1.046-1.253.444-.368.99-.655 1.603-.883.616-.23 1.3-.397 2.024-.547.37-.068.74-.14 1.12-.21l1.166-.204c.793-.136 1.61-.3 2.43-.502.823-.214 1.655-.465 2.46-.83.403-.175.8-.384 1.183-.62.383-.23.754-.495 1.1-.79.7-.584 1.3-1.31 1.753-2.08.458-.775.757-1.596.95-2.358.192-.766.284-1.48.32-2.108.036-.63.018-1.17-.007-1.615" fill="#242A33"/><path d="M18 21.893l-.043-.232c-.01-.073-.03-.166-.055-.27-.022-.105-.052-.223-.088-.355-.145-.52-.442-1.22-1.027-1.69-.287-.238-.642-.427-1.04-.576-.4-.15-.845-.26-1.315-.36-.24-.044-.48-.09-.727-.137-.25-.043-.503-.09-.76-.133-.513-.09-1.043-.196-1.577-.33-.533-.14-1.073-.303-1.597-.544-.26-.114-.516-.25-.766-.405-.248-.15-.49-.323-.715-.517-.456-.383-.845-.858-1.14-1.365-.296-.508-.49-1.045-.616-1.545-.125-.504-.184-.972-.207-1.384-.023-.413-.012-.77.005-1.06.015-.29.046-.514.066-.667l.033-.234.04.232.047.277c.023.106.046.23.07.367.053.275.13.603.228.966.1.363.232.758.407 1.155.178.395.4.79.68 1.143.28.357.614.673 1 .937.383.267.816.48 1.277.66.46.176.95.322 1.45.447.5.134 1.015.24 1.527.365.51.12 1.022.252 1.52.415.496.163.98.362 1.426.623.445.26.852.587 1.166.983.32.39.524.844.64 1.25.04.138.07.27.09.4.02-.13.05-.26.09-.4.117-.408.323-.86.64-1.25.316-.396.725-.724 1.17-.985.445-.26.93-.46 1.427-.62.496-.163 1.007-.297 1.52-.415.51-.125 1.025-.23 1.525-.364.503-.124.992-.268 1.454-.446.462-.178.895-.393 1.278-.658.386-.264.72-.58 1-.935.282-.353.5-.75.678-1.145.177-.396.31-.79.408-1.154.1-.36.175-.69.228-.964.024-.137.046-.26.07-.367l.045-.28.042-.232s.01.08.033.234c.02.15.05.374.065.667.016.29.027.646.004 1.058-.023.412-.082.88-.206 1.382-.126.5-.32 1.038-.616 1.546-.294.507-.683.982-1.136 1.364-.225.194-.467.368-.716.52-.25.154-.506.29-.768.406-.523.24-1.062.404-1.594.545-.537.134-1.066.24-1.58.33l-.76.134-.725.138c-.47.098-.914.207-1.313.358-.4.15-.755.338-1.04.577-.294.233-.515.526-.682.822-.165.3-.273.604-.348.864-.035.13-.066.25-.087.358-.027.106-.045.197-.056.272l-.045.23" fill="#77767D"/></g></svg>