<svg width="32" height="32" viewBox="0 0 32 32" xmlns="http://www.w3.org/2000/svg"><title>instagram</title><path d="M25.816 0H6.184C2.774 0 0 2.774 0 6.184V25.816C0 29.226 2.774 32 6.184 32h19.632C29.226 32 32 29.226 32 25.816V6.183C32 2.773 29.226 0 25.816 0zm1.862 3.548l.702-.002v5.378l-5.36.017L23 3.565l4.678-.016zm-16.02 8.95c1.017-1.405 2.665-2.327 4.53-2.327 1.863 0 3.51.923 4.526 2.33.66.917 1.058 2.04 1.058 3.256 0 3.08-2.508 5.584-5.586 5.584-3.08 0-5.584-2.505-5.584-5.584 0-1.216.395-2.34 1.056-3.257zm17.3 12.99c0 1.677-1.362 3.04-3.04 3.04H6.455c-1.676 0-3.04-1.363-3.04-3.04v-12.99H8.15c-.41 1.007-.64 2.106-.64 3.258 0 4.782 3.892 8.676 8.677 8.676 4.784 0 8.675-3.894 8.675-8.676 0-1.152-.23-2.25-.64-3.257h4.737v12.988z" fill="#517FA4" fill-rule="evenodd"/></svg>