<svg width="48" height="48" viewBox="0 0 48 48" xmlns="http://www.w3.org/2000/svg"><title>instant_win</title><path d="M18.702.07c-.424-.165-.906-.03-1.18.327-.274.358-.274.85 0 1.208 5.044 6.556 5.326 16.896.827 22.858-1.05-1.44-1.714-2.944-2.068-4.662-.07-.33-.303-.606-.624-.73-.32-.124-.683-.08-.962.12C8.95 23.247 6.636 30.16 8.8 36.804 11.016 43.605 17.146 48 24.417 48c8.095 0 13.626-4.62 15.173-12.676C41.936 23.118 34.103 6.04 18.702.07zM25.432 28c-.36 0-.694.188-.877.495-.18.306-.184.685-.01.995.72 1.26.094 2.684-.343 3.42-.995 1.678-2.907 3.04-4.26 3.04-.13 0-.253-.012-.364-.038-.335-.076-.68.018-.93.248-.248.232-.36.57-.3.903.518 2.86 3.032 4.937 5.977 4.937 3.308 0 5.982-2.622 6.085-5.97.067-2.21-.434-5.154-2.042-6.788-.8-.812-1.815-1.242-2.937-1.242z" fill-rule="evenodd"/></svg>