<svg width="48" height="48" viewBox="0 0 48 48" xmlns="http://www.w3.org/2000/svg"><title>italic</title><path d="M21.254 46.78c-.37 0-.923-.067-1.662-.203-.74-.136-1.447-.317-2.124-.543l-2.032-.68-1.57-.68c-1.047-.452-1.17-.61-.37-.475l8.313-22.694-2.587-.68-5.727 4.485-1.662-1.358c1.23-1.993 2.924-3.805 5.08-5.436 2.155-1.63 4.217-2.446 6.188-2.446.492 0 1.262.09 2.31.272 1.045.18 2.03.408 2.954.68.924.27 1.724.566 2.402.883.677.317.954.566.83.747l-8.496 23.1 2.032.545L31.6 39.17l1.66 1.224c-1.353 1.63-3.2 3.103-5.54 4.417-2.34 1.314-4.495 1.97-6.466 1.97zm9.42-34.787c-3.693 0-5.54-1.358-5.54-4.076 0-1.54.646-2.876 1.94-4.01 1.292-1.13 2.678-1.697 4.155-1.697 3.694 0 5.54 1.45 5.54 4.348-.122 1.54-.8 2.83-2.03 3.873-1.232 1.043-2.587 1.563-4.065 1.563z" fill="#505977" opacity=".9" fill-rule="evenodd"/></svg>