<svg width="36" height="36" viewBox="0 0 36 36" xmlns="http://www.w3.org/2000/svg"><title>javascript</title><g stroke="#0093E6" stroke-width="2" fill="none" fill-rule="evenodd"><path d="M8.53 25.998V5.41C8.53 2.977 10.508 1 12.944 1H30.59M13.678 7h8.088m-8.088 5h8.088m-8.088 4h8.088m-8.088 5h8.088"/><path d="M23.236 34.82H5.59c-2.436 0-4.41-1.973-4.41-4.41 0-2.436 1.974-4.412 4.41-4.412h17.646c-2.436 0-4.41 1.976-4.41 4.412 0 2.437 1.974 4.41 4.41 4.41s4.412-1.973 4.412-4.41V4.676c0-2.03 1.644-3.676 3.676-3.676C33.354 1 35 2.645 35 5.41h-7.352"/></g></svg>