<svg width="32" height="32" viewBox="0 0 32 32" xmlns="http://www.w3.org/2000/svg"><title>kissmetrics</title><g fill="#0093E6" fill-rule="evenodd"><path d="M21.036 26.7H16.83V9h4.206v17.7zm5.258-.545c-.216.217-.465.4-.738.545h-3.468V15.66h4.206v10.495zm-10.69.545h-4.206v-8.762h4.206V26.7zm-5.258-5.082v4.932C8.202 25.707 6.562 23.873 6 21.618h4.346z"/><path d="M29.09 11.268v.15l.005.155c-.005.23-.005.23-.005.517v14.328c0 1.475-1.2 2.673-2.68 2.673H11.318c-4.665 0-8.408-3.74-8.408-8.357 0-4.508 3.573-8.2 8.064-8.355l1.357-.046.048-1.356c.155-4.49 3.847-8.065 8.355-8.065 4.616 0 8.36 3.743 8.36 8.36zm-19.62-.394l1.404-1.404C4.817 9.68 0 14.656 0 20.732 0 26.955 5.045 32 11.268 32H26.41c3.087 0 5.59-2.5 5.59-5.583V12.09c0-.51 0-.51-.007-.778l-1.45.13 1.455.025.002-.2C32 5.045 26.955 0 20.732 0 14.656 0 9.68 4.817 9.47 10.874z"/></g></svg>