<svg width="48" height="48" viewBox="0 0 48 48" xmlns="http://www.w3.org/2000/svg"><title>libraries</title><g fill="none" fill-rule="evenodd"><path d="M7.88 3h32.066L48 16.94 23.89 45 0 16.94 7.88 3z" stroke="#626A85" stroke-width="3" stroke-linecap="round" stroke-linejoin="round"/><path d="M45.5 18c.828 0 1.5-.672 1.5-1.5s-.672-1.5-1.5-1.5h-43c-.828 0-1.5.672-1.5 1.5S1.672 18 2.5 18h43z" fill="#626A85"/><path d="M14.696 17.85c.383.735 1.29 1.02 2.024.636.734-.383 1.02-1.29.636-2.024L10.753 3.806c-.383-.734-1.29-1.02-2.024-.636-.736.383-1.02 1.29-.638 2.024l6.603 12.656z" fill="#626A85"/><path d="M24.8 5.263c.422-.713.185-1.633-.528-2.054-.713-.424-1.633-.188-2.054.526l-7.483 12.656c-.422.713-.186 1.633.527 2.054.714.422 1.633.186 2.055-.527L24.8 5.262z" fill="#626A85"/><path d="M29.7 17.92c.422.713 1.342.95 2.055.527.713-.42.95-1.34.528-2.054L24.8 3.737c-.422-.714-1.34-.95-2.055-.528-.713.42-.95 1.34-.527 2.052L29.7 17.92z" fill="#626A85"/><path d="M39.766 5.263c.422-.713.186-1.633-.528-2.054-.713-.424-1.633-.188-2.054.526L29.7 16.393c-.42.713-.185 1.633.53 2.054.712.422 1.632.186 2.053-.527l7.483-12.657zM22.516 42.49c.246.792 1.086 1.234 1.877.99.792-.247 1.234-1.087.99-1.878L17.46 16.056c-.248-.792-1.088-1.234-1.88-.99-.79.247-1.233 1.087-.99 1.878l7.925 25.546z" fill="#626A85"/><path d="M22.503 41.647c-.22.8.25 1.625 1.047 1.845.8.22 1.625-.25 1.845-1.047L32.438 16.9c.22-.8-.25-1.626-1.047-1.846-.797-.22-1.623.25-1.843 1.047L22.504 41.65z" fill="#626A85"/></g></svg>