<svg width="48" height="48" viewBox="0 0 48 48" xmlns="http://www.w3.org/2000/svg"><title>like</title><g fill="none" fill-rule="evenodd"><path d="M40 32c1.657 0 3 1.343 3 3s-1.343 3-3 3h-2c1.657 0 3 1.343 3 3s-1.343 2-3 2H25c-5.7 0-7-1-14-2V24c4.9 0 13-9 13-17 0-3.162 4.378-4.34 6 1.438C31 12 28 19 28 19h16c1.657 0 3 1.343 3 3s-1.343 4-3 4h-2c1.657 0 3 1.343 3 3s-1.343 3-3 3h-2M11 45H1V21h10v24z" stroke="#231F1F" stroke-width="2" stroke-linecap="round" stroke-linejoin="round"/><path d="M7 40c-.552 0-1 .448-1 1s.448 1 1 1 1-.448 1-1-.448-1-1-1" fill="#231F1F"/></g></svg>