<svg width="32" height="32" viewBox="0 0 32 32" xmlns="http://www.w3.org/2000/svg"><title>linkedin</title><path d="M29.634 0H2.364C1.06 0 0 1.027 0 2.292v27.416C0 30.973 1.06 32 2.364 32h27.27C30.94 32 32 30.973 32 29.708V2.292C32 1.026 30.94 0 29.634 0zM9.784 27.48H4.908V12.657h4.876V27.48zM7.346 10.633h-.032c-1.636 0-2.694-1.14-2.694-2.56 0-1.455 1.09-2.562 2.758-2.562s2.694 1.11 2.727 2.563c0 1.422-1.06 2.56-2.76 2.56zM27.363 27.48h-4.875v-7.93c0-1.993-.705-3.353-2.47-3.353-1.346 0-2.148.917-2.5 1.803-.13.316-.16.758-.16 1.2v8.28H12.48s.064-13.434 0-14.823h4.875v2.098c.648-1.01 1.806-2.448 4.395-2.448 3.207 0 5.612 2.12 5.612 6.673v8.5z" fill="#4875B4" fill-rule="evenodd"/></svg>