<svg width="32" height="32" viewBox="0 0 32 32" xmlns="http://www.w3.org/2000/svg"><title>meetups</title><path d="M32 4.8v22.4c0 2.65-2.15 4.8-4.8 4.8H4.8C2.15 32 0 29.85 0 27.2V4.8C0 2.15 2.15 0 4.8 0h22.4C29.85 0 32 2.15 32 4.8zM.246 7.384h31.508V24.86H.246V7.386zm10.483 14.64c.237.04.423.044.43.005.005-.038.1-.054.212-.036.11.018.207.002.213-.035.006-.038.055-.06.11-.053.216.034.91-.207 1.205-.42.227-.162.32-.275.328-.402.007-.097-.006-.18-.03-.183-.024-.004-.04-.15-.037-.327.006-.176-.013-.358-.04-.404-.025-.045-.047-.207-.047-.36-.003-.62-.013-.726-.07-.735-.033-.005-.043-.116-.023-.245.02-.13.006-.24-.03-.246-.038-.006-.05-.116-.03-.246.02-.13.067-.23.104-.225.037.006.06.05.054.097-.008.047.04.14.105.204.066.065.115.15.11.188-.007.038.088.22.21.407.123.184.22.36.215.39-.005.027.106.213.245.41.14.2.25.38.247.41-.005.025.105.215.244.42.138.206.247.402.24.436-.004.034.037.07.093.077.055.01.096.048.09.087-.006.04.1.228.237.418.222.31.28.352.56.396.17.027.313.023.32-.01.007-.052.13-.062.82-.064.124 0 .23-.024.233-.053.005-.028.214-.04.466-.03.497.026.718-.032.744-.196.01-.056.055-.13.1-.164.097-.07.48-2.388.418-2.532-.05-.117.02-1.09.16-2.285.062-.53.086-.97.052-.977-.033-.005-.02-.267.03-.582.05-.314.108-.57.13-.566.09.015.198.24.178.37-.013.076.008.143.045.15.037.005.06.065.048.132-.01.067.016.188.06.268.042.08.07.2.06.265-.01.064.014.122.05.13.038.004.054.1.037.21-.018.11-.002.207.035.213.037.006.053.102.035.213-.017.11-.005.206.027.21.032.006.084.194.117.417.03.224.074.425.095.447.02.02.06.175.085.34.026.166.073.305.104.31.03.005.047.07.035.144-.014.074.007.14.044.146.037.005.06.053.053.105-.01.052.042.306.112.564.07.257.106.483.08.5-.025.02-.01.04.033.047.044.007.067.088.052.18-.014.093.004.174.04.18.038.006.06.07.047.145-.012.074 0 .14.03.143.027.005.113.19.19.41.078.22.166.406.195.41.03.005.045.055.037.11-.01.056.014.106.05.112.038.006.06.07.048.14-.012.073.006.156.04.184.033.03.05.113.04.184-.012.072.01.136.046.142.037.006.056.08.042.166-.013.086.01.222.054.302.043.08.073.187.066.236-.02.146.137.31.323.34.096.016.178-.002.184-.04.005-.036.13-.048.276-.024.17.026.293.007.34-.052.044-.056.218-.088.43-.08.235.01.362-.017.372-.077.008-.05.075-.082.15-.07.12.02.176-.044.176-.197 0-.09.326-.005.345.09.012.057.045.045.093-.034.048-.078.048-.136 0-.16-.042-.023-.066-.098-.055-.17.01-.07-.01-.133-.047-.14-.037-.005-.06-.063-.05-.128.008-.065-.02-.184-.063-.265-.043-.08-.07-.2-.058-.268.01-.067-.01-.127-.05-.133-.036-.005-.057-.07-.045-.14.01-.073-.007-.155-.04-.184-.034-.03-.054-.097-.045-.152.008-.055-.035-.175-.096-.266-.06-.09-.1-.235-.088-.32.014-.084-.003-.26-.037-.39-.034-.13-.067-.32-.072-.423-.005-.102-.047-.24-.094-.303-.048-.065-.078-.164-.07-.22.01-.058-.022-.213-.07-.345-.05-.134-.113-.425-.146-.65-.032-.222-.083-.426-.114-.453-.03-.026-.04-.134-.023-.24.017-.108.003-.22-.03-.248-.033-.03-.047-.14-.03-.25.018-.11.002-.204-.035-.21-.038-.006-.056-.085-.042-.175.015-.09 0-.188-.035-.217-.033-.03-.046-.142-.03-.25.018-.11.002-.204-.035-.21-.037-.006-.06-.064-.05-.13.008-.064-.02-.183-.062-.264-.043-.08-.065-.23-.05-.33.017-.103.003-.21-.03-.24-.034-.028-.05-.123-.036-.212.014-.088-.002-.184-.035-.212-.034-.03-.05-.127-.035-.217.014-.09-.004-.17-.042-.175-.037-.006-.053-.102-.035-.213.018-.11.002-.207-.035-.213-.037-.006-.062-.05-.055-.095.007-.047-.014-.167-.046-.267-.035-.1-.083-.318-.11-.483-.025-.166-.072-.305-.103-.31-.03-.005-.047-.07-.035-.144.01-.074-.01-.14-.046-.145-.037-.005-.053-.1-.036-.212.02-.11.01-.206-.02-.21-.03-.006-.077-.23-.103-.502-.026-.27-.072-.513-.1-.538-.03-.025-.042-.12-.028-.21.012-.09-.006-.17-.043-.175-.037-.005-.06-.055-.052-.11.016-.097-.017-.164-.315-.65-.135-.22-.157-.23-.82-.355-1.027-.192-2.03-.214-2.197-.05-.054.054-.14.237-.192.41-.05.172-.12.31-.147.304-.062-.01-.178.275-.304.746-.05.182-.12.356-.16.386-.04.03-.087.154-.107.276-.02.122-.065.217-.102.21-.037-.005-.085.106-.107.247-.023.14-.095.308-.16.372-.067.062-.146.264-.177.45-.032.185-.172.753-.31 1.263-.347 1.258-.6 2.538-.516 2.61.083.07.034.387-.06.372-.04-.006-.047-.038-.02-.072.03-.033.013-.067-.038-.075-.05-.008-.178-.215-.285-.46-.106-.244-.22-.45-.252-.454-.033-.004-.055-.04-.05-.08.007-.037-.038-.143-.1-.235-.06-.09-.103-.22-.092-.288.01-.067-.022-.128-.073-.136-.052-.01-.117-.11-.145-.23-.03-.12-.078-.22-.11-.224-.034-.006-.053-.056-.044-.112.01-.055-.013-.106-.05-.11-.037-.007-.06-.058-.05-.113.01-.055-.015-.105-.05-.11-.04-.007-.065-.04-.06-.07.013-.086-.346-.853-.418-.89-.03-.02-.052-.064-.046-.1.005-.035-.036-.133-.093-.217-.056-.083-.132-.242-.168-.35-.036-.11-.124-.275-.195-.367-.07-.09-.123-.2-.117-.243.007-.042-.013-.08-.043-.085-.03-.005-.085-.09-.12-.192-.035-.1-.104-.19-.153-.197-.05-.01-.085-.045-.08-.08.007-.04-.224-.107-.56-.16-.338-.054-.578-.063-.585-.024-.006.037-.148.046-.314.02-.167-.027-.308-.018-.314.02-.006.036-.087.054-.18.04-.092-.015-.172 0-.177.032-.01.054-.094.08-.67.194-.17.034-.202.075-.24.32-.025.156-.02.316.008.356.05.07.026.385-.172 2.232-.045.438-.056.802-.022.807.035.007.03.21-.007.45-.038.24-.05.496-.027.565.024.07.04.36.038.644 0 .284-.002.703 0 .932.002.228.003.53.002.674 0 .142.024.28.054.306.03.025.037.153.017.282-.023.14-.008.223.036.205.044-.02.057.072.032.228-.023.143-.02.293.008.333.026.042.058.34.07.665.012.325.047.625.076.666.03.04.04.16.024.263-.016.102 0 .192.038.2.037.004.063.04.057.076-.007.037.032.134.086.215.075.115.194.166.517.22z" fill="#EB2F12" fill-rule="evenodd"/></svg>