<svg width="36" height="36" viewBox="0 0 36 36" xmlns="http://www.w3.org/2000/svg"><title>mobile</title><g fill="none" fill-rule="evenodd"><path d="M29 32.043C29 33.676 27.687 35 26.067 35H9.933C8.313 35 7 33.676 7 32.043V3.957C7 2.323 8.313 1 9.933 1h16.134C27.687 1 29 2.323 29 3.957v28.086z" stroke="#0093E6" stroke-width="2" stroke-linecap="round"/><path d="M28 7L8 7.047M28 28.953H8" stroke="#0093E6" stroke-width="2"/><path d="M18.087 30.565c-.816 0-1.478.662-1.478 1.478s.66 1.48 1.477 1.48c.817 0 1.478-.664 1.478-1.48s-.66-1.478-1.478-1.478" fill="#0093E6"/><path d="M14.39 3.957h7.393" stroke="#0093E6" stroke-width="2" stroke-linecap="round"/></g></svg>