<svg width="48" height="48" viewBox="0 0 48 48" xmlns="http://www.w3.org/2000/svg"><title>month</title><g fill="#231F1F" fill-rule="evenodd"><path d="M47 4h-7V1c0-.553-.448-1-1-1h-6c-.552 0-1 .447-1 1v3H16V1c0-.553-.448-1-1-1H9c-.552 0-1 .447-1 1v3H1c-.552 0-1 .447-1 1v42c0 .553.448 1 1 1h46c.552 0 1-.447 1-1V5c0-.553-.448-1-1-1zM34 2h4v6h-4V2zM10 2h4v6h-4V2zM8 6v3c0 .553.448 1 1 1h6c.552 0 1-.447 1-1V6h16v3c0 .553.448 1 1 1h6c.552 0 1-.447 1-1V6h6v8H2V6h6zM2 16h44v30H2V16z"/><path d="M43 24c.552 0 1-.447 1-1 0-.553-.448-1-1-1h-7v-3c0-.553-.448-1-1-1s-1 .447-1 1v3h-9v-3c0-.553-.448-1-1-1s-1 .447-1 1v3h-9v-3c0-.553-.448-1-1-1s-1 .447-1 1v3H5c-.552 0-1 .447-1 1 0 .553.448 1 1 1h7v6H5c-.552 0-1 .447-1 1 0 .553.448 1 1 1h7v6H5c-.552 0-1 .447-1 1 0 .553.448 1 1 1h7v3c0 .553.448 1 1 1s1-.447 1-1v-3h9v3c0 .553.448 1 1 1s1-.447 1-1v-3h9v3c0 .553.448 1 1 1s1-.447 1-1v-3h7c.552 0 1-.447 1-1 0-.553-.448-1-1-1h-7v-6h7c.552 0 1-.447 1-1 0-.553-.448-1-1-1h-7v-6h7zm-29 0h9v6h-9v-6zm0 8h9v6h-9v-6zm11 0h9v6h-9v-6zm0-8h9v6h-9v-6z"/></g></svg>