<svg width="48" height="48" viewBox="0 0 48 48" xmlns="http://www.w3.org/2000/svg"><title>phone</title><path d="M18.17 14.804c1.807-1.807 1.807-4.735 0-6.542l-4.906-4.906c-1.806-1.807-4.735-1.807-6.543 0l-2.69 2.69c-2.333 2.335-2.694 5.978-.874 8.732 7.82 11.82 18.25 22.25 30.07 30.067 2.747 1.817 6.4 1.455 8.73-.875l2.69-2.69c1.807-1.808 1.807-4.737 0-6.543L39.74 29.83c-1.807-1.806-4.736-1.806-6.544 0l-1.635 1.635c-5.38-4.41-10.615-9.645-15.023-15.026l1.635-1.637z" stroke="#231F1F" stroke-width="2" stroke-linecap="round" stroke-linejoin="round" fill="none"/></svg>