<svg width="48" height="48" viewBox="0 0 48 48" xmlns="http://www.w3.org/2000/svg"><title>platform</title><path d="M24.01.086c-.35 0-.695.007-1.04.02C9.876.636 0 10.73 0 23.586c0 13.51 10.737 24.5 23.936 24.5C37.206 48.086 48 37.28 48 24 48 10.813 37.238.086 24.01.086zM2.048 25h11.085c.206 3.298.908 6.646 2.11 10h-10.2c-1.71-2.967-2.774-6.367-2.995-10zm11.015-2H2.028c.095-3.656 1.064-7.05 2.727-10h9.93c-1.08 3.232-1.626 6.582-1.622 10zm3.675-10H31.28c1.183 3.227 1.777 6.575 1.772 10H14.966c-.004-3.425.59-6.773 1.772-10zm-1.694 12h17.93c-.223 3.287-.982 6.634-2.28 10h-13.37c-1.298-3.366-2.057-6.713-2.28-10zm19.84 0h11.09c-.162 3.63-1.206 7.03-2.918 10H32.773c1.204-3.354 1.905-6.702 2.112-10zm.07-2c.005-3.418-.54-6.768-1.62-10h9.683c1.734 2.965 2.793 6.367 2.958 10h-11.02zM41.7 11h-9.107c-1.24-3.02-2.98-5.918-5.2-8.654C33.24 3.25 38.328 6.456 41.7 11zM24.554 2.1c2.54 2.81 4.508 5.79 5.908 8.9H17.556c1.4-3.11 3.37-6.093 5.91-8.903.182-.004.362-.01.544-.01.182 0 .363.01.545.013zm-3.92.234C18.41 5.074 16.67 7.977 15.424 11h-9.38c3.333-4.596 8.485-7.794 14.592-8.666zM6.334 37h9.685c1.24 2.97 2.874 5.938 4.9 8.868-5.954-.844-11.15-4.14-14.585-8.868zm17.19 9.075c-2.22-3.014-4.01-6.05-5.364-9.075h11.697c-1.357 3.025-3.144 6.06-5.365 9.072-.185.004-.37.014-.556.014-.138 0-.273-.008-.41-.01zm3.58-.22C29.125 42.93 30.76 39.967 32 37h9.76c-3.426 4.693-8.652 7.986-14.654 8.854z" fill="#231F1F" fill-rule="evenodd"/></svg>