<svg width="36" height="36" viewBox="0 0 36 36" xmlns="http://www.w3.org/2000/svg"><title>plug_in</title><path d="M21.5 14.23c-2.21-2.163-2.21-5.666 0-7.827L17 2l-3.63 3.552c-.238-.393-.523-.768-.87-1.107-2.21-2.16-5.79-2.16-8 0s-2.21 5.666 0 7.827c.346.338.727.617 1.13.85L2 16.674l4.5 4.402c2.21-2.16 5.79-2.16 8 0s2.21 5.666 0 7.827l4.5 4.4 3.63-3.55c.24.394.524.768.87 1.106 2.21 2.16 5.792 2.16 8 0 2.21-2.163 2.21-5.667 0-7.828-.345-.34-.728-.618-1.13-.85L34 18.63l-4.5-4.4c-2.208 2.16-5.79 2.16-8 0z" stroke="#0093E6" stroke-width="2" stroke-linecap="round" stroke-linejoin="round" fill="none"/></svg>