<svg width="36" height="36" viewBox="0 0 36 36" xmlns="http://www.w3.org/2000/svg"><title>question_bubble</title><g fill="none" fill-rule="evenodd"><path d="M35 16.502c0 7.66-7.61 13.87-17 13.87-2.095 0-4.102-.31-5.956-.875l-9.77 4.546L6.1 26.406C2.953 23.89 1 20.382 1 16.502c0-7.66 7.61-13.87 17-13.87s17 6.21 17 13.87z" stroke="#0093E6" stroke-width="2" stroke-linejoin="round"/><path d="M18.74 21.85c-.817 0-1.48.662-1.48 1.478s.663 1.478 1.48 1.478c.815 0 1.477-.662 1.477-1.478s-.662-1.48-1.478-1.48" fill="#0093E6"/><path d="M14.304 13.903c0-2.45 1.986-4.527 4.435-4.527 2.448 0 4.434 1.94 4.434 4.39 0 2.45-1.986 4.388-4.435 4.388V20" stroke="#0093E6" stroke-width="2" stroke-linecap="round" stroke-linejoin="round"/></g></svg>