<svg width="36" height="36" viewBox="0 0 36 36" xmlns="http://www.w3.org/2000/svg"><title>question</title><g fill="none" fill-rule="evenodd"><path d="M18 25.39c-.817 0-1.478.664-1.478 1.48s.66 1.478 1.478 1.478c.815 0 1.478-.662 1.478-1.478s-.663-1.48-1.478-1.48" fill="#0093E6"/><path d="M35 18c0 9.39-7.61 17-17 17S1 27.39 1 18 8.61 1 18 1s17 7.61 17 17z" stroke="#0093E6" stroke-width="2" stroke-linecap="round" stroke-linejoin="round"/><path d="M13.565 14.304c0-2.448 1.986-4.434 4.435-4.434 2.448 0 4.435 1.986 4.435 4.434 0 2.45-1.987 4.435-4.435 4.435v4.434" stroke="#0093E6" stroke-width="2" stroke-linecap="round" stroke-linejoin="round"/></g></svg>