<svg width="48" height="48" viewBox="0 0 48 48" xmlns="http://www.w3.org/2000/svg"><title>quiz</title><path d="M20.953 33.947l6.386-2.093c-1.006-.698-1.58-2.023-1.58-3.14 0-6.21 12.77-7.046 12.77-17.372C38.533 5.062 33.008.39 23.968.39 17.51.39 11.985 2.9 8.327 7.295l4.877 5.232c2.368-3 5.525-4.883 9.974-4.883 4.592 0 6.816 2.302 6.816 5.023 0 5.93-11.552 6.767-11.552 15.28 0 2.3.79 4.394 2.51 6zm2.583 14.442c2.727 0 5.023-2.305 5.023-4.956 0-2.58-2.298-4.814-5.025-4.814-2.726 0-5.022 2.234-5.022 4.815 0 2.65 2.296 4.954 5.022 4.954z" fill-rule="evenodd"/></svg>