<svg width="48" height="48" viewBox="0 0 48 48" xmlns="http://www.w3.org/2000/svg"><title>review</title><path d="M24.01 3l3.177 6.154 7.105.988-5.14 4.79 1.212 6.764-6.354-3.194-6.353 3.194 1.213-6.765-5.14-4.787 7.103-.988L24.01 3zm11.75 22.435l3.177 6.154 7.105.985-5.14 4.79 1.212 6.764-6.354-3.194-6.353 3.193 1.213-6.765-5.14-4.79 7.103-.987 3.177-6.155zm-23.5 0l3.177 6.154 7.105.985-5.14 4.79 1.212 6.764-6.354-3.194-6.353 3.193 1.213-6.765-5.14-4.79 7.103-.987 3.177-6.155z" fill-rule="evenodd"/></svg>