<svg width="32" height="32" viewBox="0 0 32 32" xmlns="http://www.w3.org/2000/svg"><title>soundcloud</title><path d="M.362 16.027c-.067 0-.12.056-.128.135L0 18.082l.234 1.884c.01.08.06.135.128.135.065 0 .117-.053.128-.132l.277-1.886-.277-1.918c-.01-.08-.063-.135-.128-.135zm1.316-1.048c-.01-.085-.066-.14-.133-.14-.068 0-.124.057-.133.14l-.315 3.1.315 3.033c.01.08.065.14.133.14.067 0 .122-.058.133-.14l.358-3.033-.358-3.1zm4.957-2.864c-.13 0-.236.114-.24.26l-.252 5.706.25 3.688c.007.145.113.26.242.26.128 0 .235-.115.242-.26v.002l.284-3.69-.282-5.706c-.007-.145-.114-.26-.242-.26zM4.07 14.1c-.1 0-.18.086-.188.2L3.6 18.082l.282 3.658c.008.113.09.2.188.2s.178-.087.187-.2l.32-3.658-.32-3.782c-.01-.114-.09-.2-.187-.2zm5.172 7.93c.16 0 .29-.14.297-.32l.244-3.625-.245-7.598c-.008-.178-.138-.317-.298-.317-.16 0-.292.14-.297.318l-.218 7.597.218 3.627c.005.177.136.317.296.317 0 0-.16 0 0 0zm5.338.016c.22 0 .402-.196.406-.437v-.002l.172-3.523-.172-8.775c-.003-.24-.185-.436-.406-.436-.22 0-.403.196-.406.437l-.153 8.77.155 3.53c.003.24.186.435.406.435 0 0-.22 0 0 0zm-2.69-.014c.193 0 .347-.166.353-.378v.003l.208-3.572-.207-7.652c-.005-.212-.16-.377-.35-.377-.194 0-.35.165-.353.377l-.186 7.653.185 3.57c.003.21.157.376.35.376 0 0-.193 0 0 0zM5.35 22c.114 0 .206-.1.214-.23l.303-3.688-.303-3.51c-.008-.13-.1-.227-.214-.227-.116 0-.21.1-.215.23l-.267 3.507.267 3.688c.007.13.1.23.215.23 0 0-.116 0 0 0zm-2.546-.204c.084 0 .15-.07.16-.17l.34-3.545-.34-3.68c-.01-.097-.076-.17-.16-.17s-.15.074-.16.17l-.3 3.68.3 3.548c.008.098.075.17.16.17 0 0-.085 0 0 0zm10.428-11.49c-.208 0-.375.178-.38.407l-.168 7.373.17 3.55c.003.224.17.403.378.403.21 0 .374-.18.38-.41v.004l.19-3.548-.19-7.375c-.006-.227-.17-.406-.38-.406zm-5.296 11.73c.144 0 .263-.127.27-.288l.264-3.664-.264-7.012c-.008-.162-.126-.288-.27-.288-.145 0-.263.127-.27.288l-.234 7.012.234 3.665c.007.16.125.285.27.285 0 0-.145 0 0 0zm2.952-.345l.227-3.604-.227-7.853c-.006-.195-.148-.348-.325-.348-.175 0-.318.152-.322.348l-.2 7.853.2 3.604c.006.193.148.346.324.346.178 0 .32-.153.326-.347zm17.18-8.13c-.54 0-1.055.117-1.524.33-.313-3.83-3.288-6.833-6.917-6.833-.888 0-1.753.188-2.517.508-.297.124-.376.25-.38.5v13.483c.004.26.19.476.426.502l10.91.006c2.174 0 3.936-1.902 3.936-4.25 0-2.345-1.762-4.248-3.935-4.248zM15.923 8.05c-.236 0-.43.21-.434.468l-.178 9.57.177 3.474c.002.253.197.463.433.463s.43-.21.433-.467v.004l.194-3.474-.193-9.57c-.003-.257-.197-.467-.433-.467z" fill="#F50" fill-rule="evenodd"/></svg>