<svg width="48" height="48" viewBox="0 0 48 48" xmlns="http://www.w3.org/2000/svg"><title>source</title><path d="M1.588 24.083c-.784.782-.784 2.052 0 2.834l13.548 13.5c.782.78 2.05.777 2.828-.005.78-.783.778-2.05-.005-2.83l-13.55-13.5v2.836l13.547-13.5c.782-.78.784-2.046.004-2.83-.78-.78-2.045-.783-2.827-.004l-13.548 13.5zm42.048 2.834v-2.834l-13.548 13.5c-.782.78-.784 2.046-.005 2.83.78.78 2.046.783 2.83.004l13.546-13.5c.783-.782.783-2.052 0-2.834l-13.55-13.5c-.782-.78-2.05-.777-2.83.005-.777.783-.775 2.05.007 2.83l13.548 13.5z" fill="#626A85" fill-rule="evenodd"/></svg>