<svg width="48" height="48" viewBox="0 0 48 48" xmlns="http://www.w3.org/2000/svg"><title>stats</title><path d="M1 47h46M9 37H3v10h6V37zm12-10h-6v20h6V27zm12 4h-6v16h6V31zm12-14h-6v30h6V17zM8 23c0 1.104-.895 2-2 2-1.104 0-2-.896-2-2s.896-2 2-2c1.105 0 2 .896 2 2zm12-10c0 1.104-.895 2-2 2-1.104 0-2-.896-2-2s.896-2 2-2c1.105 0 2 .896 2 2zm12 4c0 1.104-.895 2-2 2-1.104 0-2-.896-2-2s.896-2 2-2c1.105 0 2 .896 2 2zM44 3c0 1.104-.895 2-2 2-1.104 0-2-.896-2-2s.896-2 2-2c1.105 0 2 .896 2 2zM7.537 21.72l8.928-7.44m3.425-.65l8.27 2.756M40.7 4.518l-9.4 10.964" stroke="#231F1F" stroke-width="2" stroke-linecap="round" stroke-linejoin="round" fill="none" fill-rule="evenodd"/></svg>