<svg width="36" height="36" viewBox="0 0 36 36" xmlns="http://www.w3.org/2000/svg"><title>stop</title><g stroke="#0093E6" stroke-width="2" stroke-linecap="round" stroke-linejoin="round" fill="none" fill-rule="evenodd"><path d="M29.5 17v9.75c0 4.142-3.46 7.5-7.727 7.5H16.62c-2.646 0-5.108-1.316-6.527-3.484C7.433 26.703 4.128 20 4.128 20c-.52-.715-.434-1.69.203-2.31.688-.665 1.784-.706 2.52-.094l4.106 4.654v-15c0-1.243 1.037-2.25 2.318-2.25 1.28 0 2.318 1.007 2.318 2.25v9"/><path d="M15.59 13.25v-9c0-1.243 1.04-2.25 2.32-2.25 1.28 0 2.317 1.007 2.317 2.25v9m0 3v-9c0-1.243 1.038-2.25 2.318-2.25s2.32 1.007 2.32 2.25v9"/><path d="M24.864 18.5v-6.75c0-1.243 1.037-2.25 2.318-2.25 1.28 0 2.318 1.007 2.318 2.25v9"/></g></svg>