<svg width="48" height="48" viewBox="0 0 48 48" xmlns="http://www.w3.org/2000/svg"><title>trait</title><g fill="#626A85" fill-rule="evenodd"><path d="M18 23c-1.105 0-2 .895-2 2s.895 2 2 2h12c1.105 0 2-.895 2-2s-.895-2-2-2H18z"/><path d="M4.487 24.192c-.65.75-.65 1.865 0 2.616l9.073 10.5c.723.835 1.986.927 2.82.205.837-.722.93-1.985.207-2.82l-9.074-10.5v2.615l9.074-10.5c.722-.836.63-2.1-.206-2.82-.834-.723-2.097-.63-2.82.204l-9.073 10.5zM40.56 26.808v-2.616l-9.073 10.5c-.722.836-.63 2.1.205 2.82.836.723 2.1.63 2.82-.204l9.075-10.5c.65-.75.65-1.865 0-2.616l-9.074-10.5c-.722-.835-1.985-.927-2.82-.205-.836.722-.928 1.985-.206 2.82l9.073 10.5z"/></g></svg>