<svg width="32" height="32" viewBox="0 0 32 32" xmlns="http://www.w3.org/2000/svg"><title>tumblr</title><path d="M28.673 0C30.51 0 32 1.49 32 3.327v25.346C32 30.51 30.51 32 28.673 32H3.327C1.49 32 0 30.51 0 28.673V3.327C0 1.49 1.49 0 3.327 0h25.346zm-14.6 6.4c-.133 1.053-.375 1.922-.73 2.603-.35.683-.817 1.267-1.4 1.755-.58.486-1.527.86-2.343 1.12v2.894h2.822v7.165c0 .934.1 1.647.3 2.14.2.49.555.955 1.072 1.392.514.432 1.137.77 1.867 1.007.73.234 1.29.353 2.24.353.838 0 1.616-.084 2.336-.248.72-.165 1.525-.454 2.41-.865v-3.222c-1.04.672-2.086 1.008-3.138 1.008-.592 0-1.115-.135-1.576-.407-.345-.2-.663-.547-.79-.88-.128-.337-.113-1.02-.113-2.206v-5.238h4.803v-3.648H17.03V6.4h-2.954z" fill="#32506D" fill-rule="evenodd"/></svg>