<svg width="48" height="48" viewBox="0 0 48 48" xmlns="http://www.w3.org/2000/svg"><title>twitter</title><path d="M1.5 39.185c.48.068 1.233.103 2.26.103 4.247 0 8.048-1.37 11.404-4.11-2.054 0-3.835-.616-5.342-1.85-1.575-1.232-2.67-2.842-3.288-4.828.96.137 1.54.205 1.747.205.824 0 1.646-.102 2.468-.308-2.192-.41-3.973-1.507-5.343-3.287S3.35 21.308 3.35 19.048v-.206c1.438.822 2.808 1.233 4.11 1.233-1.37-1.027-2.364-2.157-2.98-3.39-.685-1.37-1.028-2.877-1.028-4.52 0-1.78.41-3.39 1.233-4.83 2.192 2.946 5 5.31 8.425 7.09 3.22 1.712 6.746 2.67 10.582 2.876-.137-.82-.206-1.54-.206-2.155 0-2.603.89-4.863 2.672-6.78 1.78-1.85 3.938-2.775 6.472-2.775 1.233 0 2.466.273 3.7.82 1.3.617 2.328 1.337 3.08 2.158 2.124-.41 4.076-1.164 5.857-2.26-.274.89-.822 1.884-1.644 2.98-.685.822-1.507 1.575-2.465 2.26 1.78-.206 3.56-.72 5.342-1.54-1.233 1.917-2.774 3.56-4.623 4.93v1.336c0 2.603-.343 5.137-1.028 7.603-.687 2.465-1.783 4.93-3.29 7.397-1.3 2.123-3.082 4.212-5.342 6.267-1.85 1.646-4.316 3.084-7.398 4.317-2.808 1.096-5.856 1.644-9.144 1.644-5.137 0-9.863-1.437-14.178-4.314z" fill="#626A85" fill-rule="evenodd"/></svg>