<svg width="36" height="36" viewBox="0 0 36 36" xmlns="http://www.w3.org/2000/svg"><title>ul</title><path d="M6.7 7.005c0 1.602-1.3 2.9-2.9 2.9-1.604 0-2.9-1.298-2.9-2.9 0-1.6 1.296-2.9 2.9-2.9 1.6 0 2.9 1.3 2.9 2.9zm5.9-.105h21.75M6.7 18.605c0 1.602-1.3 2.9-2.9 2.9-1.604 0-2.9-1.298-2.9-2.9 0-1.6 1.296-2.9 2.9-2.9 1.6 0 2.9 1.3 2.9 2.9zm5.9-.105h21.75M6.7 30.205c0 1.602-1.3 2.9-2.9 2.9-1.604 0-2.9-1.298-2.9-2.9 0-1.6 1.296-2.9 2.9-2.9 1.6 0 2.9 1.3 2.9 2.9zm5.9-.105h21.75" stroke="#0093E6" stroke-width="2" stroke-linecap="round" stroke-linejoin="round" fill="none" fill-rule="evenodd"/></svg>