<svg width="48" height="48" viewBox="0 0 48 48" xmlns="http://www.w3.org/2000/svg"><title>user</title><path d="M24.75 46.5H46.5s0-3.89-1.89-7.674c-1.412-2.82-7.567-4.728-15.132-7.565V25.59s2.837-1.89 2.837-5.674c.946 0 1.892-3.782 0-4.728 0-.562 2.534-5.298 1.892-8.51-.946-4.73-14.185-4.73-15.13-.946-5.675 0-1.892 8.688-1.892 9.455-1.892.946-.946 4.728 0 4.728 0 3.783 2.837 5.674 2.837 5.674v5.674C12.457 34.1 6.3 36.008 4.892 38.828 3 42.61 3 46.5 3 46.5h21.75z" stroke="#626A85" stroke-width="2" stroke-linejoin="round" fill="none"/></svg>