<svg width="48" height="48" viewBox="0 0 48 48" xmlns="http://www.w3.org/2000/svg"><title>user_group</title><g stroke="#626A85" stroke-width="2" stroke-linejoin="round" fill="none" fill-rule="evenodd"><path d="M19.103 46.36h17.614s0-6.5-.927-9.285c-.808-2.428-6.644-4.014-12.768-6.314v-4.874s2.935-1.208 2.935-5.85c1.53 0 1.53-3.9 0-3.9 0-.456 1.62-3.273.978-5.85-.928-3.715-11.79-3.715-12.718 0-4.634-.93-1.956 5.227-1.956 5.85-1.53 0-1.53 3.9 0 3.9 0 4.642 2.936 5.85 2.936 5.85v4.875c-5.437 2.06-11.963 3.887-12.77 6.315C1.5 39.86 1.5 46.36 1.5 46.36h17.603z"/><path d="M42.267 46.192h3.913s0-6.5-.927-9.286c-.808-2.428-6.644-4.99-12.768-7.29v-2.924s2.935-1.208 2.935-5.85c1.53 0 1.53-3.9 0-3.9 0-.457 1.62-3.63.978-6.21-.435-1.737-3.913-4.515-6.848-2.565" stroke-linecap="round"/></g></svg>