<svg width="48" height="48" viewBox="0 0 48 48" xmlns="http://www.w3.org/2000/svg"><title>user_circle</title><g stroke="#626A85" stroke-width="2" stroke-linejoin="round" fill="none" fill-rule="evenodd"><path d="M20.087 29.87s-2.935-.98-2.935-5.87c-1.616 0-1.616-3.913 0-3.913 0-.655-2.935-7.826 1.957-6.848.977-3.914 11.738-3.914 12.716 0 .678 2.714-.978 6.367-.978 6.847 1.616 0 1.616 3.913 0 3.913 0 4.89-2.935 5.87-2.935 5.87v4.89c4.846 1.818 9.645 3.323 12.102 5.04 4.01-4.064 6.485-9.642 6.485-15.8C46.5 11.573 36.426 1.5 24 1.5 11.573 1.5 1.5 11.573 1.5 24c0 6.17 2.485 11.758 6.505 15.822 2.603-1.8 7.734-3.417 12.082-5.06V29.87z"/><path d="M8.348 39.675c4.08 4.122 9.736 6.677 15.994 6.677 6.268 0 11.935-2.565 16.016-6.7"/></g></svg>