<svg width="32" height="32" viewBox="0 0 32 32" xmlns="http://www.w3.org/2000/svg"><title>vkontakte</title><path d="M28.637 0c1.837 0 3.327 1.49 3.327 3.327v25.346c0 1.837-1.49 3.327-3.327 3.327H3.29c-1.836 0-3.326-1.49-3.326-3.327V3.327C-.036 1.49 1.454 0 3.29 0h25.347zM24.94 24c1.315-.396 5.213.634 5.42-1.01.066-.526-.628-1.408-.95-1.816-.85-1.08-1.588-1.788-2.64-2.758-.485-.447-1.115-.924-1.15-1.547-.05-.82.76-1.643 1.15-2.155.98-1.283 1.87-2.223 2.777-3.7.237-.388 1.006-1.797.745-2.355-.315-.672-2.067-.403-3.048-.403-1.197 0-2.5-.24-3.318.068-.537.2-.855 1.307-1.152 1.95-.722 1.567-1.3 2.62-2.235 3.835-.43.556-.823 1.267-1.56 1.346-.954-.632-.715-2.054-.677-3.43.035-1.227.406-2.862-.135-3.77-.532-.89-2.432-.74-3.794-.74-1.62 0-2.963.1-3.454 1.078.59.347 1.172.36 1.49.942.338.618.372 2.065.34 3.23-.03 1.025-.09 2.627-.746 2.757-.675.135-1.25-.877-1.625-1.413-.866-1.236-1.523-2.324-2.235-3.834-.31-.658-.7-1.69-1.084-1.884-.646-.327-2.027-.135-2.91-.135-1.044 0-2.077-.176-2.71.337 0 1.096.58 2.075 1.016 2.96 1.346 2.734 2.803 5.223 4.673 7.602 1.75 2.227 3.745 4.298 7.652 4.71 1.237.13 3.032.263 3.454-.47.52-.91-.1-3.03 1.15-3.23.88-.14 1.62 1.075 2.1 1.614.853.952 1.852 1.98 3.32 2.22h.134z" fill="#45668E" fill-rule="evenodd"/></svg>