<svg width="36" height="36" viewBox="0 0 36 36" xmlns="http://www.w3.org/2000/svg"><title>webhook</title><g transform="translate(1 2)" stroke="#0093E6" stroke-width="2" fill="none" fill-rule="evenodd"><ellipse cx="26.273" cy="24.258" rx="3.606" ry="3.613"/><path d="M5.884 16.738C2.506 17.566 0 20.618 0 24.258 0 28.534 3.46 32 7.727 32c4.268 0 7.728-3.466 7.728-7.742h7.324"/><ellipse transform="rotate(120 7.794 24.264)" cx="7.794" cy="24.264" rx="3.606" ry="3.613"/><path d="M24.488 10.333c.973-3.345-.412-7.046-3.558-8.865C17.234-.67 12.508.598 10.374 4.3c-2.133 3.704-.867 8.44 2.83 10.577L9.54 21.232"/><ellipse transform="rotate(-120 17.066 8.032)" cx="17.066" cy="8.032" rx="3.606" ry="3.613"/><path d="M20.76 29.483c2.405 2.517 6.297 3.165 9.443 1.345 3.696-2.138 4.962-6.873 2.828-10.576-2.133-3.702-6.86-4.97-10.555-2.833l-3.662-6.357"/></g></svg>