<svg width="48" height="48" viewBox="0 0 48 48" xmlns="http://www.w3.org/2000/svg"><title>week</title><g fill="#231F1F" fill-rule="evenodd"><path d="M47 4c.552 0 1 .447 1 1v42c0 .553-.448 1-1 1H1c-.552 0-1-.447-1-1V5c0-.553.448-1 1-1h7V1c0-.553.448-1 1-1h6c.552 0 1 .447 1 1v3h16V1c0-.553.448-1 1-1h6c.552 0 1 .447 1 1v3m-6-2v6h4V2M10 2v6h4V2M8 6H2v8h44V6h-6v3c0 .553-.448 1-1 1h-6c-.552 0-1-.447-1-1V6H16v3c0 .553-.448 1-1 1H9c-.552 0-1-.447-1-1m-6 7v30h44V16"/><path d="M29 22H19c-.552 0-1 .447-1 1v2c0 .553.448 1 1 1s1-.447 1-1v-1h7.557l-2.25 6H22c-.552 0-1 .447-1 1 0 .553.448 1 1 1h2.557l-2.494 6.648c-.193.518.07 1.094.586 1.288.115.043.233.064.35.064.405 0 .786-.247.937-.648L26.693 32H28c.552 0 1-.447 1-1 0-.553-.448-1-1-1h-.557l2.494-6.648c.114-.308.072-.652-.115-.92-.187-.27-.494-.432-.822-.432"/></g></svg>